<?xml version="1.0" standalone="no"?>
<!DOCTYPE svg PUBLIC "-//W3C//DTD SVG 20010904//EN"
 "http://www.w3.org/TR/2001/REC-SVG-20010904/DTD/svg10.dtd">
<svg version="1.0" xmlns="http://www.w3.org/2000/svg"
 width="421.000000pt" height="421.000000pt" viewBox="0 0 421.000000 421.000000"
 preserveAspectRatio="xMidYMid meet">

<g transform="translate(0.000000,421.000000) scale(0.100000,-0.100000)"
fill="#000000" stroke="none">
<path d="M1812 3635 c-24 -13 -59 -38 -78 -55 -38 -33 -61 -34 -148 -4 -66 24
-129 18 -185 -16 -63 -39 -83 -80 -80 -163 l3 -62 -40 -12 c-21 -6 -51 -14
-65 -17 -38 -8 -95 -69 -115 -123 -22 -60 -32 -73 -54 -73 -24 0 -77 -45 -96
-82 -9 -18 -14 -48 -12 -76 2 -46 1 -48 -43 -77 -94 -61 -135 -161 -106 -257
l15 -46 -40 -39 c-73 -69 -94 -150 -63 -237 13 -38 13 -41 -15 -73 -44 -50
-51 -123 -20 -199 12 -29 11 -34 -21 -80 -28 -41 -34 -58 -34 -104 0 -44 6
-63 27 -95 l28 -40 -30 -23 c-58 -45 -49 -131 21 -200 44 -45 45 -47 23 -90
-28 -57 -28 -93 0 -132 14 -19 37 -52 51 -72 14 -21 43 -50 65 -64 31 -20 41
-35 45 -63 10 -57 36 -111 66 -132 l28 -20 -5 48 c-7 72 -34 609 -34 679 0 52
4 64 25 84 23 22 37 25 125 28 95 4 99 5 89 24 -8 16 -5 27 14 56 14 20 27 44
29 52 3 8 11 -18 18 -57 l13 -73 59 0 c61 0 70 9 49 49 -5 9 -22 75 -37 147
-22 98 -28 156 -28 240 0 106 1 115 32 173 18 34 32 69 32 79 0 37 22 93 48
123 15 18 36 60 47 95 17 53 33 75 107 153 69 72 93 91 115 91 36 0 92 15 176
47 67 26 68 26 105 8 30 -15 64 -18 181 -20 102 -1 146 -5 149 -13 2 -7 8 -12
13 -12 5 0 26 -18 46 -41 45 -50 79 -68 163 -89 71 -17 64 -10 128 -147 9 -19
39 -49 71 -70 31 -21 65 -49 75 -63 11 -14 46 -52 78 -84 40 -41 64 -76 79
-115 11 -31 29 -70 40 -87 13 -22 19 -50 19 -90 0 -60 -44 -293 -61 -325 -24
-46 -20 -48 176 -51 185 -3 185 -3 211 -29 32 -32 32 -37 9 -443 -8 -143 -15
-288 -15 -321 l1 -60 29 33 c17 18 30 39 30 47 0 8 20 23 45 34 28 12 52 32
64 53 11 18 27 40 35 49 8 8 25 36 36 62 11 25 25 49 31 53 15 9 59 105 59
129 0 18 11 58 52 195 6 19 19 46 29 59 32 40 21 107 -25 159 -18 20 -19 26
-7 55 40 96 38 169 -5 232 -24 37 -24 37 -9 110 27 133 18 176 -52 239 -39 34
-42 41 -41 87 0 52 -26 114 -67 159 -14 16 -24 42 -28 74 -7 68 -49 125 -107
145 -61 21 -72 30 -65 50 20 64 -99 200 -177 201 -33 0 -63 31 -79 79 -26 79
-88 149 -158 178 -22 9 -59 13 -103 11 l-69 -3 -40 52 c-67 89 -158 126 -237
99 -32 -12 -43 -12 -49 -3 -14 22 -77 64 -108 72 -60 15 -91 15 -128 -1 -37
-17 -38 -17 -66 10 -55 52 -183 63 -259 21z m-602 -1672 c-1 -32 -4 -43 -9
-33 -8 14 -4 80 5 80 2 0 4 -21 4 -47z"/>
<path d="M1535 2450 c-100 -33 -141 -61 -119 -82 3 -3 37 6 77 19 90 32 204
35 290 10 105 -32 139 12 37 47 -82 28 -210 31 -285 6z"/>
<path d="M2425 2451 c-71 -20 -85 -28 -85 -46 0 -23 36 -27 97 -8 85 25 200
22 290 -9 39 -14 76 -22 83 -18 22 14 -32 50 -113 75 -93 30 -184 32 -272 6z"/>
<path d="M1600 2229 c-59 -12 -100 -32 -131 -66 -32 -34 -53 -72 -44 -81 6 -6
10 -1 33 34 9 14 82 64 93 64 5 0 4 -12 -1 -26 -15 -37 -12 -101 5 -134 24
-47 66 -70 126 -70 47 0 51 2 34 14 -17 12 -16 15 21 39 41 29 68 22 44 -10
-8 -10 -1 -6 14 9 22 20 30 38 34 77 5 57 11 57 53 -1 31 -44 35 -44 19 -3
-41 109 -177 179 -300 154z m54 -64 c9 -25 -5 -45 -30 -45 -14 0 -27 7 -30 15
-10 25 4 45 30 45 13 0 26 -7 30 -15z"/>
<path d="M2510 2231 c-77 -15 -164 -87 -190 -156 -16 -41 -12 -41 19 3 42 57
51 60 51 17 0 -43 12 -69 53 -112 28 -29 37 -33 85 -33 48 0 53 2 42 15 -7 9
-11 17 -9 18 24 19 68 47 73 47 3 0 6 -10 6 -22 0 -21 3 -19 22 10 18 28 20
43 15 98 l-6 64 28 -15 c16 -8 44 -30 62 -49 38 -41 47 -40 26 1 -43 82 -172
135 -277 114z m-5 -81 c0 -18 -6 -26 -23 -28 -24 -4 -38 18 -28 44 3 9 15 14
28 12 17 -2 23 -10 23 -28z"/>
<path d="M970 361 c0 -21 9 -41 25 -56 l24 -25 1086 0 1086 0 24 25 c14 13 25
31 25 40 0 14 -4 13 -29 -4 -29 -21 -33 -21 -1078 -21 -682 0 -1061 4 -1085
10 -20 6 -46 22 -58 37 l-20 26 0 -32z"/>
</g>
</svg>
